<?xml version="1.0" encoding="UTF-8"?>
<svg width="18.357mm" height="25.071mm" version="1.1" viewBox="0 0 65.04282 88.835519" xmlns="http://www.w3.org/2000/svg">
 <g transform="translate(-490.34 -470.8)">
  <g transform="matrix(.29378 0 0 .29378 1321.5 14.003)" fill="#1a1a1a" fill-rule="evenodd" filter="url(#filter4218)" opacity=".95">
   <path d="m-2664 1760.8 2.0049-3.9122a30.25 36.5 30.445 0 0 38.466 -18.671 30.25 36.5 30.445 0 0 -7.5837 -46.795 30.25 36.5 30.445 0 0 -11.928 -3.4609l-0.1781-9.3525a36.466 44 30.445 0 1 18.973 4.0902 36.466 44 30.445 0 1 9.1412 56.41 36.466 44 30.445 0 1 -48.896 21.691z" color="#000000" color-rendering="auto" image-rendering="auto" opacity="1" shape-rendering="auto" solid-color="#000000" style="isolation:auto;mix-blend-mode:normal"/>
   <path d="m-2681.7 1788.6c-1.0951 0.9217-2.2252 1.8301-3.4258 2.7149a66.085 30.861 0 0 1 19.412 21.824 66.085 30.861 0 0 1 -66.084 30.859 66.085 30.861 0 0 1 -66.086 -30.859 66.085 30.861 0 0 1 16.07 -20.148c-0.6929-0.4893-1.3771-0.9908-2.0488-1.5098a72.357 33.893 0 0 0 -18.209 22.418 72.357 33.893 0 0 0 72.356 33.894 72.357 33.893 0 0 0 72.357 -33.894 72.357 33.893 0 0 0 -24.342 -25.299z" color="#000000" color-rendering="auto" image-rendering="auto" opacity="1" shape-rendering="auto" solid-color="#000000" style="isolation:auto;mix-blend-mode:normal"/>
   <path transform="translate(-3166.4 153.82)" d="m432 1478.4a95 44.5 0 0 0 -22.477 1.3184c-0.27908 1.8206-0.46963 3.655-0.44141 5.5195a86.765 40.518 0 0 1 25.652 -1.8554 86.765 40.518 0 0 1 86.766 40.518 86.765 40.518 0 0 1 -86.766 40.52 86.765 40.518 0 0 1 -86.766 -40.52 86.765 40.518 0 0 1 25.828 -28.822c-0.49119-2.5833-0.60722-5.0075-0.20313-7.2071a95 44.5 0 0 0 -36.594 35.029 95 44.5 0 0 0 95 44.5 95 44.5 0 0 0 95 -44.5 95 44.5 0 0 0 -95 -44.5z" color="#000000" color-rendering="auto" image-rendering="auto" opacity="1" shape-rendering="auto" solid-color="#000000" style="isolation:auto;mix-blend-mode:normal"/>
   <path transform="translate(-3166.4 153.82)" d="m337.04 1523.9c0.39976 71.662 42.793 129.47 94.963 129.5 52.174-0.017 94.575-57.831 94.975-129.5h-5.4406c0.0687 1.6652 0.11164 3.3323 0.12891 5-5e-5 65.245-39.166 118.14-86.663 118.14s-87.282-52.892-87.282-118.14c0.0348-1.6682 0.0954-3.3353 0.18164-5z" color="#000000" color-rendering="auto" image-rendering="auto" opacity="1" shape-rendering="auto" solid-color="#000000" style="isolation:auto;mix-blend-mode:normal"/>
   <path d="m-2670.8 1777c-0.9895 1.2823-2.0205 2.5494-3.1035 3.7969a86.765 40.518 0 0 1 30.955 31.023 86.765 40.518 0 0 1 -86.766 40.518 86.765 40.518 0 0 1 -86.766 -40.518 86.765 40.518 0 0 1 24.25 -28.031c-0.6927-0.7633-1.371-1.5472-2.0371-2.3477a95 44.5 0 0 0 -27.713 31.379 95 44.5 0 0 0 95 44.5 95 44.5 0 0 0 95 -44.5 95 44.5 0 0 0 -38.82 -35.82z" color="#000000" color-rendering="auto" image-rendering="auto" opacity="1" shape-rendering="auto" solid-color="#000000" style="isolation:auto;mix-blend-mode:normal"/>
   <path d="m-2815.6 1564s31.113 1.4142 36.77 26.163c5.6569 24.749-22.627 51.619-4.9497 74.246s87.681 26.87 87.681 26.87-44.548-8.4853-58.69-31.113c-14.142-22.628 8.2741-68.714 5.6568-84.146-5.5982-33.008-66.725-19.206-66.468-12.021z"/>
  </g>
 </g>
</svg>
