<?xml version="1.0" encoding="UTF-8" standalone="no"?>
<!-- Created with Inkscape (http://www.inkscape.org/) -->

<svg
   xmlns:dc="http://purl.org/dc/elements/1.1/"
   xmlns:cc="http://creativecommons.org/ns#"
   xmlns:rdf="http://www.w3.org/1999/02/22-rdf-syntax-ns#"
   xmlns:svg="http://www.w3.org/2000/svg"
   xmlns="http://www.w3.org/2000/svg"
   xmlns:sodipodi="http://sodipodi.sourceforge.net/DTD/sodipodi-0.dtd"
   xmlns:inkscape="http://www.inkscape.org/namespaces/inkscape"
   width="71.055542mm"
   height="25.071205mm"
   viewBox="0 0 71.055542 25.071205"
   version="1.1"
   id="svg856"
   inkscape:version="0.92.3 (2405546, 2018-03-11)"
   sodipodi:docname="logo_text_black.svg">
  <defs
     id="defs850" />
  <sodipodi:namedview
     id="base"
     pagecolor="#ffffff"
     bordercolor="#666666"
     borderopacity="1.0"
     inkscape:pageopacity="0.0"
     inkscape:pageshadow="2"
     inkscape:zoom="0.98994949"
     inkscape:cx="174.17809"
     inkscape:cy="-18.020301"
     inkscape:document-units="mm"
     inkscape:current-layer="g16"
     showgrid="false"
     inkscape:window-width="1920"
     inkscape:window-height="1016"
     inkscape:window-x="0"
     inkscape:window-y="27"
     inkscape:window-maximized="1" />
  <metadata
     id="metadata853">
    <rdf:RDF>
      <cc:Work
         rdf:about="">
        <dc:format>image/svg+xml</dc:format>
        <dc:type
           rdf:resource="http://purl.org/dc/dcmitype/StillImage" />
        <dc:title></dc:title>
      </cc:Work>
    </rdf:RDF>
  </metadata>
  <g
     inkscape:label="Calque 1"
     inkscape:groupmode="layer"
     id="layer1"
     transform="translate(-36.178992,-50.875111)">
    <g
       transform="matrix(0.28221818,0,0,0.28221818,-102.18649,-81.996108)"
       id="g16">
      <g
         style="opacity:0.95;fill:#000000;fill-rule:evenodd;filter:url(#filter4218)"
         transform="matrix(0.29378,0,0,0.29378,1321.5,14.003)"
         id="g14">
        <path
           inkscape:connector-curvature="0"
           d="m -2664,1760.8 2.0049,-3.9122 a 30.25,36.5 30.445 0 0 38.466,-18.671 30.25,36.5 30.445 0 0 -7.5837,-46.795 30.25,36.5 30.445 0 0 -11.928,-3.4609 l -0.1781,-9.3525 a 36.466,44 30.445 0 1 18.973,4.0902 36.466,44 30.445 0 1 9.1412,56.41 36.466,44 30.445 0 1 -48.896,21.691 z"
           style="color:#000000;opacity:1;isolation:auto;mix-blend-mode:normal;solid-color:#000000;fill:#000000;color-rendering:auto;image-rendering:auto;shape-rendering:auto"
           id="path2" />
        <path
           inkscape:connector-curvature="0"
           d="m -2681.7,1788.6 c -1.0951,0.9217 -2.2252,1.8301 -3.4258,2.7149 a 66.085,30.861 0 0 1 19.412,21.824 66.085,30.861 0 0 1 -66.084,30.859 66.085,30.861 0 0 1 -66.086,-30.859 66.085,30.861 0 0 1 16.07,-20.148 c -0.6929,-0.4893 -1.3771,-0.9908 -2.0488,-1.5098 a 72.357,33.893 0 0 0 -18.209,22.418 72.357,33.893 0 0 0 72.356,33.894 72.357,33.893 0 0 0 72.357,-33.894 72.357,33.893 0 0 0 -24.342,-25.299 z"
           style="color:#000000;opacity:1;isolation:auto;mix-blend-mode:normal;solid-color:#000000;fill:#000000;color-rendering:auto;image-rendering:auto;shape-rendering:auto"
           id="path4" />
        <path
           inkscape:connector-curvature="0"
           transform="translate(-3166.4,153.82)"
           d="m 432,1478.4 a 95,44.5 0 0 0 -22.477,1.3184 c -0.27908,1.8206 -0.46963,3.655 -0.44141,5.5195 a 86.765,40.518 0 0 1 25.652,-1.8554 86.765,40.518 0 0 1 86.766,40.518 86.765,40.518 0 0 1 -86.766,40.52 86.765,40.518 0 0 1 -86.766,-40.52 86.765,40.518 0 0 1 25.828,-28.822 c -0.49119,-2.5833 -0.60722,-5.0075 -0.20313,-7.2071 a 95,44.5 0 0 0 -36.594,35.029 95,44.5 0 0 0 95,44.5 95,44.5 0 0 0 95,-44.5 95,44.5 0 0 0 -95,-44.5 z"
           style="color:#000000;opacity:1;isolation:auto;mix-blend-mode:normal;solid-color:#000000;fill:#000000;color-rendering:auto;image-rendering:auto;shape-rendering:auto"
           id="path6" />
        <path
           inkscape:connector-curvature="0"
           transform="translate(-3166.4,153.82)"
           d="m 337.04,1523.9 c 0.39976,71.662 42.793,129.47 94.963,129.5 52.174,-0.017 94.575,-57.831 94.975,-129.5 h -5.4406 c 0.0687,1.6652 0.11164,3.3323 0.12891,5 -5e-5,65.245 -39.166,118.14 -86.663,118.14 -47.497,0 -87.282,-52.892 -87.282,-118.14 0.0348,-1.6682 0.0954,-3.3353 0.18164,-5 z"
           style="color:#000000;opacity:1;isolation:auto;mix-blend-mode:normal;solid-color:#000000;fill:#000000;color-rendering:auto;image-rendering:auto;shape-rendering:auto"
           id="path8" />
        <path
           inkscape:connector-curvature="0"
           d="m -2670.8,1777 c -0.9895,1.2823 -2.0205,2.5494 -3.1035,3.7969 a 86.765,40.518 0 0 1 30.955,31.023 86.765,40.518 0 0 1 -86.766,40.518 86.765,40.518 0 0 1 -86.766,-40.518 86.765,40.518 0 0 1 24.25,-28.031 c -0.6927,-0.7633 -1.371,-1.5472 -2.0371,-2.3477 a 95,44.5 0 0 0 -27.713,31.379 95,44.5 0 0 0 95,44.5 95,44.5 0 0 0 95,-44.5 95,44.5 0 0 0 -38.82,-35.82 z"
           style="color:#000000;opacity:1;isolation:auto;mix-blend-mode:normal;solid-color:#000000;fill:#000000;color-rendering:auto;image-rendering:auto;shape-rendering:auto"
           id="path10" />
        <path
           inkscape:connector-curvature="0"
           d="m -2815.6,1564 c 0,0 31.113,1.4142 36.77,26.163 5.6569,24.749 -22.627,51.619 -4.9497,74.246 17.6773,22.627 87.681,26.87 87.681,26.87 0,0 -44.548,-8.4853 -58.69,-31.113 -14.142,-22.628 8.2741,-68.714 5.6568,-84.146 -5.5982,-33.008 -66.725,-19.206 -66.468,-12.021 z"
           id="path12"
           style="fill:#000000" />
      </g>
      <text
         xml:space="preserve"
         style="font-style:normal;font-variant:normal;font-weight:normal;font-stretch:normal;font-size:31.15173149px;line-height:125%;font-family:Purisa;-inkscape-font-specification:Purisa;text-align:start;letter-spacing:0px;word-spacing:0px;text-anchor:start;fill:#000000;fill-opacity:1;stroke:none;stroke-width:1.16818988px;stroke-linecap:butt;stroke-linejoin:miter;stroke-opacity:1"
         x="559.95679"
         y="536.08075"
         id="text1426"><tspan
           sodipodi:role="line"
           id="tspan1424"
           x="559.95679"
           y="536.08075"
           style="font-style:normal;font-variant:normal;font-weight:normal;font-stretch:normal;font-size:37.38207626px;font-family:Purisa;-inkscape-font-specification:Purisa;stroke-width:1.16818988px">Shennong</tspan></text>
    </g>
  </g>
</svg>
