<?xml version="1.0" encoding="UTF-8" standalone="no"?>
<svg
   xmlns:dc="http://purl.org/dc/elements/1.1/"
   xmlns:cc="http://creativecommons.org/ns#"
   xmlns:rdf="http://www.w3.org/1999/02/22-rdf-syntax-ns#"
   xmlns:svg="http://www.w3.org/2000/svg"
   xmlns="http://www.w3.org/2000/svg"
   xmlns:sodipodi="http://sodipodi.sourceforge.net/DTD/sodipodi-0.dtd"
   xmlns:inkscape="http://www.inkscape.org/namespaces/inkscape"
   width="18.356297mm"
   height="20.917395mm"
   version="1.1"
   viewBox="0 0 65.040326 74.117812"
   id="svg4626"
   sodipodi:docname="logo.svg"
   inkscape:version="0.92.3 (2405546, 2018-03-11)"
   inkscape:export-filename="/home/mathieu/dev/shennong/doc/static/logo.png"
   inkscape:export-xdpi="96"
   inkscape:export-ydpi="96">
  <metadata
     id="metadata4632">
    <rdf:RDF>
      <cc:Work
         rdf:about="">
        <dc:format>image/svg+xml</dc:format>
        <dc:type
           rdf:resource="http://purl.org/dc/dcmitype/StillImage" />
      </cc:Work>
    </rdf:RDF>
  </metadata>
  <defs
     id="defs4630" />
  <sodipodi:namedview
     pagecolor="#ffffff"
     bordercolor="#666666"
     borderopacity="1"
     objecttolerance="10"
     gridtolerance="10"
     guidetolerance="10"
     inkscape:pageopacity="0"
     inkscape:pageshadow="2"
     inkscape:window-width="1920"
     inkscape:window-height="1043"
     id="namedview4628"
     showgrid="false"
     inkscape:zoom="2.4905935"
     inkscape:cx="-55.585217"
     inkscape:cy="31.690567"
     inkscape:window-x="1680"
     inkscape:window-y="0"
     inkscape:window-maximized="1"
     inkscape:current-layer="g4622" />
  <g
     transform="translate(-490.27972,-470.81028)"
     id="g4624">
    <g
       transform="matrix(0.29378,0,0,0.29378,1321.5,14.003)"
       id="g4622"
       style="opacity:0.95;fill:#1a1a1a;fill-rule:evenodd;filter:url(#filter4218)">
      <path
         d="m -2773.403,1760.8 -2.0049,-3.9122 a 36.5,30.25 59.555 0 1 -38.466,-18.671 36.5,30.25 59.555 0 1 7.5837,-46.795 36.5,30.25 59.555 0 1 11.928,-3.4609 l 0.1781,-9.3525 a 44,36.466 59.555 0 0 -18.973,4.0902 44,36.466 59.555 0 0 -9.1412,56.41 44,36.466 59.555 0 0 48.896,21.691 z"
         style="color:#000000;opacity:1;isolation:auto;mix-blend-mode:normal;solid-color:#000000;color-rendering:auto;image-rendering:auto;shape-rendering:auto"
         id="path4610"
         inkscape:connector-curvature="0" />
      <path
         d="m -2703.003,1632.22 a 95,44.5 0 0 1 22.477,1.3184 c 0.2791,1.8206 0.4697,3.655 0.4414,5.5195 a 86.765,40.518 0 0 0 -25.652,-1.8554 86.765,40.518 0 0 0 -86.766,40.518 86.765,40.518 0 0 0 86.766,40.52 86.765,40.518 0 0 0 86.766,-40.52 86.765,40.518 0 0 0 -25.828,-28.822 c 0.4912,-2.5833 0.6073,-5.0075 0.2032,-7.2071 a 95,44.5 0 0 1 36.594,35.029 95,44.5 0 0 1 -95,44.5 95,44.5 0 0 1 -95,-44.5 95,44.5 0 0 1 95,-44.5 z"
         style="color:#000000;opacity:1;isolation:auto;mix-blend-mode:normal;solid-color:#000000;color-rendering:auto;image-rendering:auto;shape-rendering:auto"
         id="path4614"
         inkscape:connector-curvature="0" />
      <path
         d="m -2608.043,1677.72 c -0.3997,71.662 -42.793,129.47 -94.963,129.5 -52.174,-0.017 -94.575,-57.831 -94.975,-129.5 h 5.4406 c -0.069,1.6652 -0.1116,3.3323 -0.1289,5 1e-4,65.245 39.166,118.14 86.663,118.14 47.497,0 87.282,-52.892 87.282,-118.14 -0.035,-1.6682 -0.095,-3.3353 -0.1816,-5 z"
         style="color:#000000;opacity:1;isolation:auto;mix-blend-mode:normal;solid-color:#000000;color-rendering:auto;image-rendering:auto;shape-rendering:auto"
         id="path4616"
         inkscape:connector-curvature="0" />
      <path
         d="m -2621.803,1564 c 0,0 -31.113,1.4142 -36.77,26.163 -5.6569,24.749 22.627,51.619 4.9497,74.246 -17.6773,22.627 -87.681,26.87 -87.681,26.87 0,0 44.548,-8.4853 58.69,-31.113 14.142,-22.628 -8.2741,-68.714 -5.6568,-84.146 5.5982,-33.008 66.725,-19.206 66.468,-12.021 z"
         id="path4620"
         inkscape:connector-curvature="0" />
    </g>
  </g>
</svg>
